<?xml version="1.0" standalone="no"?>
<!DOCTYPE svg PUBLIC "-//W3C//DTD SVG 20010904//EN"
 "http://www.w3.org/TR/2001/REC-SVG-20010904/DTD/svg10.dtd">
<svg version="1.0" xmlns="http://www.w3.org/2000/svg"
 width="310.000000pt" height="308.000000pt" viewBox="0 0 310.000000 308.000000"
 preserveAspectRatio="xMidYMid meet">

<g transform="translate(0.000000,308.000000) scale(0.100000,-0.100000)"
fill="#000000" stroke="none">
<path d="M1515 2601 c-82 -21 -404 -180 -970 -481 -310 -165 -346 -186 -403
-236 -61 -54 -112 -150 -112 -213 0 -57 36 -147 78 -193 46 -51 228 -168 262
-168 6 0 -7 21 -30 48 -61 68 -83 124 -76 191 6 63 24 92 87 139 47 36 52 38
569 312 470 249 576 300 617 300 32 0 291 -122 392 -184 20 -12 67 -38 105
-57 37 -19 81 -46 97 -61 52 -47 34 -113 -41 -148 l-48 -23 -94 50 c-269 145
-368 193 -397 193 -40 0 -218 -91 -616 -315 -66 -37 -149 -83 -185 -102 -204
-111 -217 -120 -245 -185 -33 -80 -8 -182 57 -232 19 -14 37 -26 40 -26 3 0
82 -43 174 -96 93 -53 187 -107 209 -119 22 -12 94 -53 160 -90 244 -140 357
-194 404 -195 48 0 104 26 476 225 110 59 344 183 520 276 176 93 345 188 375
211 152 112 182 275 79 419 -22 32 -126 102 -219 149 -33 17 -62 30 -66 30 -3
0 13 -21 36 -47 81 -93 101 -173 60 -252 -35 -69 -55 -82 -505 -317 -71 -37
-184 -96 -250 -131 -288 -153 -475 -243 -506 -243 -20 0 -88 30 -193 85 -210
111 -360 196 -385 217 -59 50 -18 140 75 164 13 3 96 -32 246 -106 158 -78
237 -112 261 -112 21 0 60 14 99 35 35 19 144 76 243 127 99 51 185 96 190
100 6 4 62 35 125 68 347 183 354 187 377 233 31 57 31 139 1 198 -21 40 -37
51 -173 126 -82 45 -217 119 -300 165 -527 289 -527 288 -600 271z m145 -868
c49 -27 88 -52 87 -57 -2 -4 -46 -31 -100 -58 l-97 -49 -100 52 c-55 29 -100
55 -100 58 0 11 175 99 198 100 13 1 63 -20 112 -46z"/>
</g>
</svg>
